# xmcd
#
# Track frame offsets:
# 150
# 17017
# 28375
# 41192
# 52125
# 64355
# 76330
# 86137
# 99055
# 109292
# 122870
# 134362
#
# Disc length: 1949 seconds
#
#
# Revision: 4
# Processed by: cddbd v1.5.1PL2 Copyright (c) Steve Scherf et al.
# Submitted via: FreeRIP 2.60 
#
DISCID=ab079b0c
DTITLE=Patsy Cline - A Portrait Of Patsy Cline
DYEAR=1988
DGENRE=Country
TTITLE0=Faded Love
TTITLE1=I'll Sail My Ship Alone
TTITLE2=When You Need A Laugh
TTITLE3=Crazy Arms
TTITLE4=Always
TTITLE5=When I Get Thru With You (You'll Love Me Too)
TTITLE6=Blue Moon Of Kentucky
TTITLE7=Someday (You'll Want Me To Want You)
TTITLE8=Who Can I Count On
TTITLE9=You Took Him Off My Hands
TTITLE10=Your Kinda Love
TTITLE11=Does Your Heart Beat For Me
EXTD=MCA Records-MCAD-224\nFrom Original Decca Catalogue
EXTT0=
EXTT1=
EXTT2=
EXTT3=
EXTT4=
EXTT5=
EXTT6=
EXTT7=
EXTT8=
EXTT9=
EXTT10=
EXTT11=
PLAYORDER=
